<svg width="16" height="16" viewBox="0 0 16 16" fill="none" xmlns="http://www.w3.org/2000/svg">
<g clip-path="url(#clip0)">
<path d="M14.4998 3H7.70978L6.8598 2.15002L6.50983 2H1.50983L1.00983 2.5V6.5V13.5L1.50983 14H14.5098L15.0098 13.5V9V3.5L14.4998 3ZM13.9898 11.49V13H1.98981V11.49V7.48999V7H6.4798L6.82977 6.84998L7.68976 5.98999H13.9998V7.48999L13.9898 11.49ZM13.9898 5H7.48981L7.13983 5.15002L6.27985 6.01001H1.99982V3.01001H6.28986L7.13983 3.85999L7.49982 4.01001H13.9998L13.9898 5Z" fill="#424242"/>
</g>
<defs>
<clipPath id="clip0">
<path d="M-0.000183105 0H15.9998V16H-0.000183105V0Z" fill="white"/>
</clipPath>
</defs>
</svg>
