<svg xmlns="http://www.w3.org/2000/svg" width="24" viewBox="0 0 24 24">
  <g class="jp-icon3 jp-icon-selectable" fill="#616161" shape-rendering="geometricPrecision">
    <path d="M6.59 3.41L2 8l4.59 4.6L8 11.18 4.82 8 8 4.82 6.59 3.41m5.82 0L11 4.82 14.18 8 11 11.18l1.41 1.42L17 8l-4.59-4.59M18.093 21.608a3.998 3.998 0 004.015-4.015 3.998 3.998 0 00-4.015-4.016 3.998 3.998 0 00-4.016 4.016 3.998 3.998 0 004.016 4.015m0-8.923c2.676 0 4.907 2.23 4.907 4.908 0 2.676-2.23 4.907-4.907 4.907s-4.908-2.23-4.908-4.907 2.23-4.908 4.908-4.908m2.498 5.89l-.348.624-2.588-1.428v-2.632h.75v2.141z" />
  </g>
</svg>
