<svg xmlns="http://www.w3.org/2000/svg" width="24" viewBox="0 0 24 24">
  <g class="jp-icon3 jp-icon-selectable" fill="#616161" shape-rendering="geometricPrecision">
    <path d="M18.5,1.15C17.97,1.15 17.46,1.34 17.07,1.73L11.26,7.55L16.91,13.2L22.73,7.39C23.5,6.61 23.5,5.35 22.73,4.56L19.89,1.73C19.5,1.34 19,1.15 18.5,1.15M10.3,8.5L4.34,14.46C3.56,15.24 3.56,16.5 4.36,17.31C3.14,18.54 1.9,19.77 0.67,21H6.33L7.19,20.14C7.97,20.9 9.22,20.89 10,20.12L15.95,14.16" />
    <!-- T by GreenTurtwig, see http://materialdesignicons.com/icon/alpha-t -->
    <path d="M9,7V9H11V17H13V9H15V7H9Z" transform="translate(9,9)"/>
  </g>
</svg>
