<svg xmlns="http://www.w3.org/2000/svg" width="24" viewBox="0 0 24 24">
  <g class="jp-icon3 jp-icon-selectable" fill="#616161" shape-rendering="geometricPrecision">
    <path d="M10.48 10.88l3.68-3.68-3.68-3.68L11.6 2.4l4.8 4.8-4.8 4.8-1.12-1.12m-4.16 0L2.64 7.2l3.68-3.68L5.2 2.4.4 7.2 5.2 12l1.12-1.12zM8.5 23.8l2.337-2.338-.025-.017a1.283 1.283 0 010-1.802l4.029-4.029 3.604 3.604-4.029 4.03a1.267 1.267 0 01-1.776.017l-.536.535H8.5m10.124-11.976a1.283 1.283 0 011.802 0l1.81 1.802a1.293 1.293 0 010 1.81l-2.805 2.796-3.604-3.604 2.797-2.805z"/>
  </g>
</svg>
