<svg xmlns="http://www.w3.org/2000/svg" width="24" viewBox="0 0 24 24">
  <g class="jp-icon3 jp-icon-selectable" fill="#616161" shape-rendering="geometricPrecision">
    <path transform="scale(0.8) translate(-1.5,-3)" d="M14.6,16.6L19.2,12L14.6,7.4L16,6L22,12L16,18L14.6,16.6M9.4,16.6L4.8,12L9.4,7.4L8,6L2,12L8,18L9.4,16.6Z" />
    <path transform="scale(0.85) translate(6,11)" d="M4,17L6.75,14.25L6.72,14.23C6.14,13.64 6.14,12.69 6.72,12.11L11.46,7.37L15.7,11.61L10.96,16.35C10.39,16.93 9.46,16.93 8.87,16.37L8.24,17H4M15.91,2.91C16.5,2.33 17.45,2.33 18.03,2.91L20.16,5.03C20.74,5.62 20.74,6.57 20.16,7.16L16.86,10.45L12.62,6.21L15.91,2.91Z" />
  </g>
</svg>
